<?xml version="1.0" encoding="UTF-8"?>
<svg version="1.1" xmlns="http://www.w3.org/2000/svg" width="466" height="426">
<path d="M0 0 C0.77859375 0.75152344 1.5571875 1.50304687 2.359375 2.27734375 C5.44382048 5.18972305 7.85393823 5.25655066 12.01269531 5.60620117 C31.5031836 7.30829528 49.54630996 13.8159324 64.25 27.0625 C65.18392578 27.87460938 65.18392578 27.87460938 66.13671875 28.703125 C79.2063573 40.8035544 85.79076084 57.77685926 86.5390625 75.32421875 C86.79963244 86.26435247 86.20356795 96.48073212 83.25 107.0625 C83.04600586 107.79484863 82.84201172 108.52719727 82.63183594 109.28173828 C79.88686907 118.88512673 76.91548524 127.41117036 70.25 135.0625 C69.71761719 135.6915625 69.18523437 136.320625 68.63671875 136.96875 C60.68715809 145.62030051 50.37736141 151.43799496 38.640625 152.33984375 C24.87641549 152.68533094 13.84897392 149.26294902 3.5 139.9375 C-1.48865069 134.64076162 -5.75 127.39199295 -5.75 120.0625 C-10.33884803 120.63966802 -14.34583313 121.86039657 -17.75 125.0625 C-22.02955995 131.94506824 -24.03455517 140.2002507 -26.4375 147.875 C-27.16627161 150.08402403 -27.89984658 152.29146911 -28.63818359 154.49731445 C-30.07073502 158.78821819 -31.4833915 163.08476953 -32.87939453 167.38769531 C-35.01348537 173.92263444 -37.38078111 180.34355465 -39.875 186.75 C-42.6820937 194.09445063 -45.31787558 201.48081094 -47.8125 208.9375 C-48.11236816 209.83170654 -48.41223633 210.72591309 -48.72119141 211.6472168 C-50.20292213 215.7721122 -50.20292213 215.7721122 -50.75 220.0625 C-49.96625 219.5675 -49.1825 219.0725 -48.375 218.5625 C-45.75 217.0625 -45.75 217.0625 -43.75 217.0625 C-43.75 216.4025 -43.75 215.7425 -43.75 215.0625 C-42.03515625 213.40625 -42.03515625 213.40625 -39.8125 211.5625 C-36.82954821 209.17323001 -36.82954821 209.17323001 -34.75 206.0625 C-34.09 206.0625 -33.43 206.0625 -32.75 206.0625 C-32.47414062 205.48628906 -32.19828125 204.91007813 -31.9140625 204.31640625 C-30.77121734 202.1035819 -29.48129039 200.08747487 -28.125 198 C-25.0748926 193.02038428 -22.97046211 187.83968164 -20.8125 182.4375 C-16.32712615 171.37144193 -11.2429316 164.67516345 -0.25 159.375 C9.93147906 155.55694535 22.50407503 155.65535775 32.5234375 160.0625 C42.92611566 165.4591112 48.98501737 172.06568067 53.25 183.0625 C53.8667008 185.49663031 54.13562219 187.54618828 54.25 190.0625 C54.86746094 189.72476563 55.48492187 189.38703125 56.12109375 189.0390625 C67.90281707 182.83438021 78.7750124 181.24414934 91.65234375 185.15625 C102.09707386 188.80012577 110.27833093 194.99839257 115.25 205.0625 C121.16042183 219.69783025 114.81454969 235.0760109 109.08618164 248.74267578 C99.50721558 270.80347603 83.11881322 291.29971231 63.25 305.0625 C62.26128906 305.75601562 61.27257812 306.44953125 60.25390625 307.1640625 C34.21809629 324.91557596 4.69602537 333.28051625 -26.625 333.3125 C-27.65329422 333.31401062 -27.65329422 333.31401062 -28.70236206 333.31555176 C-54.1910514 333.29029521 -81.25109037 328.40880612 -101.91430664 312.3840332 C-108.36127969 307.48061986 -114.0456446 305.53804287 -121.9375 304 C-131.70706247 301.85735813 -140.72945786 299.4899052 -149.75 295.0625 C-150.45672852 294.71735352 -151.16345703 294.37220703 -151.89160156 294.01660156 C-175.96415607 282.00618653 -194.99863489 263.03092424 -203.75 237.0625 C-206.71362666 227.83822302 -207.27754894 218.92409866 -207.1875 209.3125 C-207.18379395 208.60262939 -207.18008789 207.89275879 -207.17626953 207.16137695 C-207.10427224 197.4777416 -206.75627463 188.40418656 -203.49072266 179.16601562 C-202.5943311 176.62042906 -201.77340832 174.05423493 -200.94921875 171.484375 C-198.95232023 165.31941363 -196.86468237 159.18792394 -194.75 153.0625 C-194.42 152.10537109 -194.09 151.14824219 -193.75 150.16210938 C-191.0746903 142.42205007 -188.37614489 134.69602402 -185.48510742 127.03369141 C-184.21302229 123.62259366 -183.01213906 120.18712255 -181.8125 116.75 C-181.52383057 115.92387207 -181.23516113 115.09774414 -180.93774414 114.24658203 C-177.82699054 105.31965947 -174.755964 96.37902668 -171.6875 87.4375 C-171.42461182 86.67173645 -171.16172363 85.9059729 -170.89086914 85.11700439 C-168.23027165 77.3632221 -165.5802634 69.6076735 -163.03027344 61.81665039 C-157.72903754 45.62984948 -151.10466814 28.07882689 -139.75 15.0625 C-139.09 15.0625 -138.43 15.0625 -137.75 15.0625 C-137.38841797 14.21751953 -137.38841797 14.21751953 -137.01953125 13.35546875 C-128.62747131 -1.80188259 -107.09850578 -13.08516741 -90.79760742 -17.86108398 C-60.44270005 -25.97499891 -23.90105243 -21.54172107 0 0 Z " fill="#F74400" transform="translate(274.75,51.9375)"/>
<path d="M0 0 C21.4212306 -0.42157403 40.93511308 4.57262132 56.9609375 19.3203125 C68.49029405 31.02704377 71.13561466 45.34654608 71.10888672 61.23779297 C70.77742942 76.28149777 67.3063382 93.30680264 56.60546875 104.58984375 C49.05763882 110.79548635 41.56604863 113.00463469 31.87109375 112.50390625 C24.6298911 111.62809994 20.83112357 108.81973693 16.25 103.16796875 C12.94784705 98.70536929 11.17471384 95.07944754 11.37109375 89.40625 C11.9741461 85.65962687 13.34948774 82.24563195 14.765625 78.73828125 C17.17980747 72.25198377 17.5978672 65.9902865 15.61328125 59.375 C13.36770137 55.48266154 11.81751344 54.01353342 7.73828125 52.125 C0.56879047 50.95663854 -5.53936525 52.66708547 -11.515625 56.61328125 C-22.85240883 65.57145054 -26.40867664 79.94191505 -30.640625 93.140625 C-32.59905264 99.23655973 -34.91494879 105.17007122 -37.26171875 111.125 C-40.42527182 119.35531319 -43.47380313 127.60388415 -46.21875 135.984375 C-49.47077324 145.77698429 -53.01999435 155.47219757 -56.54052734 165.1706543 C-57.70433302 168.38914344 -58.85521024 171.61202824 -60.00390625 174.8359375 C-61.42284759 178.81797082 -62.88574305 182.7777919 -64.39453125 186.7265625 C-67.59321474 195.32007574 -69.87580275 203.20883642 -69.94921875 212.4375 C-69.95638916 213.19595215 -69.96355957 213.9544043 -69.97094727 214.73583984 C-69.64742154 224.50697031 -64.15293125 231.59833969 -57.26171875 238.125 C-45.93767247 248.03850718 -28.45853679 251.06307153 -13.75 250.484375 C7.1056788 248.33574964 28.70627584 239.32061212 42.46484375 222.98046875 C47.21922533 217.07668576 51.36438449 210.92151406 54.73828125 204.125 C55.16753906 203.30257812 55.59679687 202.48015625 56.0390625 201.6328125 C58.02513338 197.77784306 59.79224797 194.08985819 61.05078125 189.9375 C62.77482701 185.03443346 66.56104389 182.03053808 70.73828125 179.125 C74.16819663 177.98169487 76.93692285 177.92118349 80.55078125 177.875 C81.75347656 177.84921875 82.95617187 177.8234375 84.1953125 177.796875 C90.71870602 178.40102611 94.40313044 181.42858663 98.73828125 186.125 C99.39828125 186.785 100.05828125 187.445 100.73828125 188.125 C103.30792697 194.80607888 101.6370378 201.72352188 99.23828125 208.125 C98.83887329 209.21760132 98.83887329 209.21760132 98.43139648 210.33227539 C90.95437671 230.18328153 79.42238204 248.7392915 62.73828125 262.125 C61.65353516 263.05699219 61.65353516 263.05699219 60.546875 264.0078125 C47.11326179 275.29470334 31.45402623 283.23519484 14.73828125 288.375 C13.54682495 288.74467896 13.54682495 288.74467896 12.33129883 289.12182617 C0.28132831 292.65989221 -11.7620777 293.5324741 -24.26171875 293.5 C-25.34072449 293.50018127 -25.34072449 293.50018127 -26.44152832 293.50036621 C-38.73418067 293.47108989 -50.35787579 292.27976788 -62.26171875 289.125 C-64.12957031 288.65707031 -64.12957031 288.65707031 -66.03515625 288.1796875 C-87.39973286 282.25338303 -105.06717367 266.90649237 -116.58203125 248.2890625 C-118.0945654 245.43987026 -118.86951601 243.29827674 -119.26171875 240.125 C-119.92171875 240.125 -120.58171875 240.125 -121.26171875 240.125 C-121.74758275 238.60629302 -122.22503076 237.08489301 -122.69921875 235.5625 C-122.96605469 234.71558594 -123.23289062 233.86867188 -123.5078125 232.99609375 C-129.65562178 209.58345221 -121.91022785 187.08206204 -114.26171875 165.125 C-113.5882052 163.17589748 -112.91502021 161.2266814 -112.2421875 159.27734375 C-110.5922861 154.50924652 -108.92911234 149.74589118 -107.26171875 144.98388672 C-105.58835232 140.19992165 -103.92561725 135.4122644 -102.26171875 130.625 C-101.5976941 128.71613267 -100.93363157 126.80727851 -100.26953125 124.8984375 C-98.90909427 120.9873474 -97.54985841 117.07584241 -96.19140625 113.1640625 C-89.49955855 93.89965244 -89.49955855 93.89965244 -86.54589844 85.61791992 C-85.11776529 81.60165392 -83.73903035 77.57244333 -82.39453125 73.52734375 C-72.90051033 45.17140081 -59.64567879 21.11804934 -32.19921875 6.875 C-21.28404174 1.67399444 -12.08706873 0.46321701 0 0 Z " fill="#F4E701" transform="translate(209.26171875,47.875)"/>
<path d="M0 0 C2.97 0.33 5.94 0.66 9 1 C9 1.66 9 2.32 9 3 C9.969375 2.95875 10.93875 2.9175 11.9375 2.875 C15.70924627 2.8673494 19.13591481 3.57463628 22.7890625 4.46484375 C45.09460573 9.86388867 69.7423103 7.6261701 91.80883789 2.14550781 C97.46747613 0.81320701 97.46747613 0.81320701 100.5390625 1.890625 C101.02117187 2.25671875 101.50328125 2.6228125 102 3 C70.91291176 12.15419489 34.85767088 14.7717903 4 3 C1.62109375 1.375 1.62109375 1.375 0 0 Z " fill="#B32200" transform="translate(195,375)"/>
<path d="M0 0 C0.99 0 1.98 0 3 0 C-3.53259927 17.129258 -17.03007986 30.54130299 -30 43 C-30.99 42.67 -31.98 42.34 -33 42 C-32.09515208 40.84481082 -31.1755794 39.70114594 -30.25 38.5625 C-29.73953125 37.92441406 -29.2290625 37.28632813 -28.703125 36.62890625 C-26.80332371 34.81189446 -25.56413092 34.39576803 -23 34 C-22.90332031 33.41089844 -22.80664062 32.82179688 -22.70703125 32.21484375 C-21.85425506 29.54343989 -20.73190327 28.45806021 -18.6875 26.5625 C-15.86262224 23.86497329 -13.39009691 21.09827378 -11 18 C-10.34 17.34 -9.68 16.68 -9 16 C-7.61020819 13.68083821 -6.2601917 11.35671008 -4.9375 9 C-4.57333984 8.35804688 -4.20917969 7.71609375 -3.83398438 7.0546875 C-2.51419046 4.72248236 -1.19863685 2.39727371 0 0 Z " fill="#B02400" transform="translate(377,307)"/>
<path d="M0 0 C0.598125 0.20109375 1.19625 0.4021875 1.8125 0.609375 C-9.02730332 8.69995284 -18.66606586 10.71079943 -32.1875 9.609375 C-40.89108814 7.90578686 -40.89108814 7.90578686 -44.1875 4.609375 C-43.1975 4.279375 -42.2075 3.949375 -41.1875 3.609375 C-41.1875 4.269375 -41.1875 4.929375 -41.1875 5.609375 C-22.55018731 7.38346457 -22.55018731 7.38346457 -5.1875 1.359375 C-2.1875 -0.390625 -2.1875 -0.390625 0 0 Z " fill="#AB2000" transform="translate(334.1875,194.390625)"/>
<path d="M0 0 C5.21258535 -0.54869319 8.89345931 0.97765185 13.5859375 2.9765625 C16.34357917 4.14565978 19.14473436 5.09833717 22 6 C22 6.66 22 7.32 22 8 C22.8353125 7.98259766 22.8353125 7.98259766 23.6875 7.96484375 C28.89778343 7.90323567 33.8437951 8.25000656 39 9 C39.495 10.485 39.495 10.485 40 12 C41.65 12 43.3 12 45 12 C45.495 13.485 45.495 13.485 46 15 C46.66 15.33 47.32 15.66 48 16 C45 16 45 16 42.46484375 14.64453125 C37.94599153 12.49973217 33.4439258 11.67425134 28.5625 10.6875 C5.82315574 5.82315574 5.82315574 5.82315574 0 0 Z " fill="#8F1D00" transform="translate(123,345)"/>
<path d="M0 0 C0.33 0 0.66 0 1 0 C1.47793031 17.88439715 -0.32341914 32.91262717 -6 50 C-6.66 49.67 -7.32 49.34 -8 49 C-7.85433594 48.4328125 -7.70867187 47.865625 -7.55859375 47.28125 C-6.82296823 44.27701711 -6.21516671 41.24922152 -5.59765625 38.21875 C-5 36 -5 36 -3.97265625 34.171875 C-2.57900366 31.05994391 -2.56330089 28.139416 -2.375 24.75 C-2.30023438 23.48671875 -2.22546875 22.2234375 -2.1484375 20.921875 C-2.09945313 19.95765625 -2.05046875 18.9934375 -2 18 C-1.67 18 -1.34 18 -1 18 C-0.505 9.09 -0.505 9.09 0 0 Z " fill="#701A00" transform="translate(360,122)"/>
<path d="M0 0 C0.33 0 0.66 0 1 0 C1.0093457 0.8657666 1.01869141 1.7315332 1.02832031 2.62353516 C1.07294913 5.90812844 1.13482379 9.19153729 1.20751953 12.47558594 C1.23534217 13.88334762 1.2567441 15.29125429 1.27099609 16.69921875 C1.36721082 25.67925991 2.27880396 33.42522488 5.05371094 42.02490234 C5.89822656 44.6800281 6.51359823 47.26002138 7 50 C7.66 50 8.32 50 9 50 C9.66 52.64 10.32 55.28 11 58 C10.34 58 9.68 58 9 58 C8.05024728 55.92222383 7.11597376 53.83737167 6.1875 51.75 C5.66542969 50.58984375 5.14335938 49.4296875 4.60546875 48.234375 C0.23913066 37.28170847 -0.3951546 26.87343357 -0.1875 15.25 C-0.17240967 13.76303455 -0.15872904 12.2760541 -0.14648438 10.7890625 C-0.11386039 7.19238986 -0.0623247 3.59629527 0 0 Z " fill="#B72700" transform="translate(68,245)"/>
<path d="M0 0 C-10.03273254 5.41300919 -22.72952747 7.36356363 -34 7 C-34 6.67 -34 6.34 -34 6 C-31.36 6 -28.72 6 -26 6 C-26 5.34 -26 4.68 -26 4 C-22.79669644 3.12616754 -19.58679517 2.27953531 -16.375 1.4375 C-15.47136719 1.19064453 -14.56773437 0.94378906 -13.63671875 0.68945312 C-8.74721824 -0.57753423 -5.00496249 -1.38841983 0 0 Z " fill="#901C00" transform="translate(297,377)"/>
<path d="M0 0 C2.97 0.33 5.94 0.66 9 1 C9 1.66 9 2.32 9 3 C9.969375 2.95875 10.93875 2.9175 11.9375 2.875 C16.46155611 2.86582342 20.62899686 3.92971699 25 5 C26.66534667 5.33986667 28.33129513 5.67702486 30 6 C30 6.66 30 7.32 30 8 C31.98 8 33.96 8 36 8 C36 8.33 36 8.66 36 9 C30.32784201 9.1833808 25.52609899 8.66890537 20.0625 7.1875 C19.36809814 7.00590332 18.67369629 6.82430664 17.95825195 6.63720703 C4.65966626 3.10644418 4.65966626 3.10644418 0 0 Z " fill="#B42400" transform="translate(195,375)"/>
<path d="M0 0 C0.33 0.66 0.66 1.32 1 2 C-2.22647437 10.20646742 -7.52909589 16.1761863 -14 22 C-14.66 21.67 -15.32 21.34 -16 21 C-13.40660715 16.91041896 -10.58856793 13.30898758 -7.38671875 9.6796875 C-5.82298526 7.87241194 -5.82298526 7.87241194 -4.25 5.0625 C-3.8375 4.381875 -3.425 3.70125 -3 3 C-2.34 3 -1.68 3 -1 3 C-0.67 2.01 -0.34 1.02 0 0 Z " fill="#8B1D00" transform="translate(352,172)"/>
<path d="M0 0 C0.99 0 1.98 0 3 0 C3.33 2.31 3.66 4.62 4 7 C3.67 5.68 3.34 4.36 3 3 C-4.65173439 5.16564355 -4.65173439 5.16564355 -10.46484375 10.11328125 C-11.38330219 12.52176564 -11.38330219 12.52176564 -12 16 C-13.1875 14.4375 -13.1875 14.4375 -14 12 C-13.31603951 8.80818436 -13.01602437 7.42148179 -11 5 C-7.78445001 3.2508246 -4.46238543 2.15412848 -1 1 C-0.67 0.67 -0.34 0.34 0 0 Z " fill="#A92000" transform="translate(266,169)"/>
<path d="M0 0 C0.33 0 0.66 0 1 0 C1.40735653 8.50922528 0.43092956 15.8390222 -2 24 C-4.63180464 20.05229304 -3.8008948 17.26019851 -3.125 12.8125 C-2.96837891 11.68811523 -2.96837891 11.68811523 -2.80859375 10.54101562 C-2.5495672 8.69250796 -2.27616034 6.84602568 -2 5 C-1.34 5 -0.68 5 0 5 C0 3.35 0 1.7 0 0 Z " fill="#A92900" transform="translate(391,264)"/>
<path d="M0 0 C-1.3584202 3.04332765 -2.88463024 5.12309151 -5.2578125 7.453125 C-5.88300781 8.071875 -6.50820312 8.690625 -7.15234375 9.328125 C-7.80332031 9.96234375 -8.45429688 10.5965625 -9.125 11.25 C-9.78371094 11.8996875 -10.44242188 12.549375 -11.12109375 13.21875 C-12.74296643 14.81711727 -14.3693281 16.41061897 -16 18 C-16.66 17.67 -17.32 17.34 -18 17 C-3.59400545 0 -3.59400545 0 0 0 Z " fill="#F4CE01" transform="translate(163,65)"/>
<path d="M0 0 C0.66 0 1.32 0 2 0 C0.51708173 6.54955571 -1.62311735 12.72318367 -4 19 C-5.14453125 17.44921875 -5.14453125 17.44921875 -6 15 C-5.35543142 12.44797509 -4.65205263 10.23503964 -3.6875 7.8125 C-3.32881836 6.85053711 -3.32881836 6.85053711 -2.96289062 5.86914062 C-1.18849649 1.18849649 -1.18849649 1.18849649 0 0 Z " fill="#AB2300" transform="translate(237,225)"/>
<path d="M0 0 C0.66 0.33 1.32 0.66 2 1 C-2.03523352 5.81123996 -6.04467233 10.13242719 -11 14 C-11 11 -11 11 -8.59375 8.30078125 C-7.5700032 7.29697757 -6.5383946 6.30114351 -5.5 5.3125 C-4.97535156 4.80138672 -4.45070312 4.29027344 -3.91015625 3.76367188 C-2.61339096 2.50227292 -1.30753883 1.25022788 0 0 Z " fill="#D53500" transform="translate(149,53)"/>
<path d="M0 0 C2.97 0.33 5.94 0.66 9 1 C9 1.66 9 2.32 9 3 C11.31 3 13.62 3 16 3 C16 3.66 16 4.32 16 5 C16.66 5.33 17.32 5.66 18 6 C11.61435743 5.18132788 5.38079365 3.58719576 0 0 Z " fill="#881A00" transform="translate(195,375)"/>
<path d="M0 0 C10.52971846 2.15641293 10.52971846 2.15641293 14 4 C14.33 4.99 14.66 5.98 15 7 C11.14974121 6.39644592 8.13898841 5.23227397 4.6875 3.4375 C3.80449219 2.98246094 2.92148438 2.52742188 2.01171875 2.05859375 C1.34785156 1.70925781 0.68398437 1.35992187 0 1 C0 0.67 0 0.34 0 0 Z " fill="#931C00" transform="translate(180,368)"/>
<path d="M0 0 C1.65 0 3.3 0 5 0 C5.33 0.99 5.66 1.98 6 3 C7.65 3 9.3 3 11 3 C11.33 3.99 11.66 4.98 12 6 C12.66 6.33 13.32 6.66 14 7 C10.28071494 7 8.30458355 5.65229178 5 4 C2.26427415 3.30092586 2.26427415 3.30092586 0 3 C0 2.01 0 1.02 0 0 Z " fill="#AE2500" transform="translate(157,354)"/>
<path d="M0 0 C0 3.99282941 -1.47808076 5.15331592 -4 8.1875 C-4.7425 9.08855469 -5.485 9.98960937 -6.25 10.91796875 C-6.8275 11.60503906 -7.405 12.29210937 -8 13 C-8.63671875 11.15625 -8.63671875 11.15625 -9 9 C-6.8125 6.5 -6.8125 6.5 -4 4 C-3.236875 3.236875 -2.47375 2.47375 -1.6875 1.6875 C-1.130625 1.130625 -0.57375 0.57375 0 0 Z " fill="#961E00" transform="translate(372,319)"/>
<path d="M0 0 C0.33 0 0.66 0 1 0 C0.5547115 5.27315333 -0.08373163 10.01770224 -2 15 C-2.66 14.67 -3.32 14.34 -4 14 C-3.855625 13.43667969 -3.71125 12.87335938 -3.5625 12.29296875 C-2.80034742 9.18613844 -2.15587205 6.0565455 -1.5 2.92578125 C-1 1 -1 1 0 0 Z " fill="#A32200" transform="translate(356,157)"/>
<path d="M0 0 C0.66 0.33 1.32 0.66 2 1 C1.71758359 2.46015291 1.42373386 3.91809793 1.125 5.375 C0.96257812 6.18710938 0.80015625 6.99921875 0.6328125 7.8359375 C0 10 0 10 -2 12 C-3.12377697 8.69564916 -2.89554742 6.9493138 -1.5625 3.75 C-1.27503906 3.04359375 -0.98757812 2.3371875 -0.69140625 1.609375 C-0.46324219 1.07828125 -0.23507813 0.5471875 0 0 Z " fill="#9F2200" transform="translate(244,204)"/>
<path d="M0 0 C1 2 1 2 0.22265625 4.3828125 C-0.16019531 5.28773438 -0.54304688 6.19265625 -0.9375 7.125 C-1.31777344 8.03507812 -1.69804687 8.94515625 -2.08984375 9.8828125 C-2.39019531 10.58148438 -2.69054687 11.28015625 -3 12 C-3.33 12 -3.66 12 -4 12 C-3.91253716 10.56138706 -3.80434652 9.12402492 -3.6875 7.6875 C-3.62949219 6.88699219 -3.57148438 6.08648437 -3.51171875 5.26171875 C-2.91793306 2.63727666 -2.04219706 1.69179328 0 0 Z " fill="#911E00" transform="translate(387,288)"/>
<path d="M0 0 C1.25955231 3.77865693 0.48087189 5.03411786 -0.9375 8.6875 C-1.31777344 9.68136719 -1.69804687 10.67523438 -2.08984375 11.69921875 C-2.39019531 12.45847656 -2.69054687 13.21773437 -3 14 C-3.66 13.34 -4.32 12.68 -5 12 C-4.625 9.375 -4.625 9.375 -4 7 C-3.34 7 -2.68 7 -2 7 C-1.34 4.69 -0.68 2.38 0 0 Z " fill="#7D1900" transform="translate(250,191)"/>
<path d="M0 0 C-1.55603771 3.81936528 -3.95604931 6.26044438 -7 9 C-7.66 9 -8.32 9 -9 9 C-7.45665977 5.21180126 -4.44676575 0 0 0 Z " fill="#F76600" transform="translate(199,104)"/>
<path d="M0 0 C0.66 0.33 1.32 0.66 2 1 C-0.64 2.98 -3.28 4.96 -6 7 C-6.66 6.67 -7.32 6.34 -8 6 C-7.67 5.01 -7.34 4.02 -7 3 C-4.5625 1.875 -4.5625 1.875 -2 1 C-1.34 0.67 -0.68 0.34 0 0 Z " fill="#7E1B00" transform="translate(337,355)"/>
<path d="M0 0 C4.87664009 -0.34833144 7.77050005 0.58314288 12 3 C12 3.33 12 3.66 12 4 C7.12335991 4.34833144 4.22949995 3.41685712 0 1 C0 0.67 0 0.34 0 0 Z " fill="#A42300" transform="translate(123,345)"/>
<path d="M0 0 C0.6875 1.8125 0.6875 1.8125 1 4 C-0.64504011 6.46756016 -1.80299352 6.94960299 -4.6875 7.6875 C-5.8321875 7.8421875 -5.8321875 7.8421875 -7 8 C-6.02133662 6.85373678 -5.04205413 5.70800212 -4.0625 4.5625 C-3.51722656 3.92441406 -2.97195313 3.28632813 -2.41015625 2.62890625 C-1.63204305 1.73008851 -0.84063472 0.84063472 0 0 Z " fill="#B72500" transform="translate(362,330)"/>
<path d="M0 0 C6.625 -0.125 6.625 -0.125 10 1 C10 1.66 10 2.32 10 3 C6.7 2.67 3.4 2.34 0 2 C0 1.34 0 0.68 0 0 Z " fill="#9F1E00" transform="translate(147,353)"/>
<path d="M0 0 C1.45606519 4.52092968 0.27032841 7.51648796 -1 12 C-3 9 -3 9 -2.625 5.8125 C-2.41875 4.884375 -2.2125 3.95625 -2 3 C-1.34 3 -0.68 3 0 3 C0 2.01 0 1.02 0 0 Z " fill="#801B00" transform="translate(390,276)"/>
<path d="M0 0 C0.66 0 1.32 0 2 0 C2 0.66 2 1.32 2 2 C2.94875 1.938125 3.8975 1.87625 4.875 1.8125 C5.90625 1.874375 6.9375 1.93625 8 2 C8.99 3.485 8.99 3.485 10 5 C6.0507432 4.44894091 2.65079826 3.61064629 -1 2 C-0.67 1.34 -0.34 0.68 0 0 Z " fill="#861A00" transform="translate(291,198)"/>
<path d="M0 0 C0.66 0.33 1.32 0.66 2 1 C-0.31 3.31 -2.62 5.62 -5 8 C-5.33 6.68 -5.66 5.36 -6 4 C-5.01 4 -4.02 4 -3 4 C-3 3.01 -3 2.02 -3 1 C-2.01 0.67 -1.02 0.34 0 0 Z " fill="#941700" transform="translate(357,337)"/>
<path d="M0 0 C1.12377697 3.30435084 0.89554742 5.0506862 -0.4375 8.25 C-0.72496094 8.95640625 -1.01242188 9.6628125 -1.30859375 10.390625 C-1.53675781 10.92171875 -1.76492187 11.4528125 -2 12 C-2.33 12 -2.66 12 -3 12 C-3 9.69 -3 7.38 -3 5 C-2.34 5 -1.68 5 -1 5 C-0.67 3.35 -0.34 1.7 0 0 Z " fill="#761B00" transform="translate(229,249)"/>
<path d="M0 0 C0.66 0 1.32 0 2 0 C1.34 2.97 0.68 5.94 0 9 C-0.66 8.01 -1.32 7.02 -2 6 C-1.125 2.8125 -1.125 2.8125 0 0 Z " fill="#AB2000" transform="translate(240,216)"/>
<path d="M0 0 C3.77545388 1.09068668 6.47043472 1.9083091 9 5 C8.01 5.495 8.01 5.495 7 6 C5.83054208 5.19152271 4.66449539 4.37810888 3.5 3.5625 C2.8503125 3.11003906 2.200625 2.65757812 1.53125 2.19140625 C1.0259375 1.79824219 0.520625 1.40507812 0 1 C0 0.67 0 0.34 0 0 Z " fill="#9F1D00" transform="translate(281,193)"/>
<path d="M0 0 C3.03898126 1.01299375 4.12139167 1.4951889 6 4 C6.1875 6.6875 6.1875 6.6875 6 9 C3.03134491 6.45543849 1.6380249 3.51005335 0 0 Z " fill="#AF2300" transform="translate(271,180)"/>
<path d="M0 0 C0 0.66 0 1.32 0 2 C1.98 2 3.96 2 6 2 C6 2.33 6 2.66 6 3 C-2.57142857 3.28571429 -2.57142857 3.28571429 -6 1 C-4 0 -4 0 0 0 Z " fill="#7A1500" transform="translate(225,381)"/>
<path d="M0 0 C-2.91765 1.9451 -4.62537285 2.45276317 -8 3 C-7.67 2.01 -7.34 1.02 -7 0 C-4.3333581 -1.33332095 -2.83319697 -0.67102033 0 0 Z " fill="#A52000" transform="translate(310,372)"/>
<path d="M0 0 C6.64615385 1.47692308 6.64615385 1.47692308 8.4375 4.125 C8.7159375 5.053125 8.7159375 5.053125 9 6 C5.06326356 4.68775452 2.77280706 3.08089673 0 0 Z " fill="#9D1D00" transform="translate(171,362)"/>
<path d="M0 0 C0.66 0.33 1.32 0.66 2 1 C0.41641358 4.16717283 -0.45263699 5.73268318 -3.6875 7.3125 C-4.450625 7.539375 -5.21375 7.76625 -6 8 C-4.02 5.36 -2.04 2.72 0 0 Z " fill="#D02E00" transform="translate(240,258)"/>
<path d="M0 0 C-5.625 3 -5.625 3 -9 3 C-8.67 2.01 -8.34 1.02 -8 0 C-2.25 -1.125 -2.25 -1.125 0 0 Z " fill="#7A1800" transform="translate(330,199)"/>
<path d="M0 0 C0.33 0 0.66 0 1 0 C1.1953125 6.0546875 1.1953125 6.0546875 1 8 C0.34 8.66 -0.32 9.32 -1 10 C-2.46726798 6.18510326 -1.43336419 3.70988378 0 0 Z " fill="#C22A00" transform="translate(254,175)"/>
</svg>
